<svg width="273.6000122070312px" height="117.239990234375px" xmlns="http://www.w3.org/2000/svg" viewBox="113.19999389648439 16.3800048828125 273.6000122070312 117.239990234375" style="background: rgb(255, 255, 255);" preserveAspectRatio="xMidYMid"><defs><linearGradient id="editing-gradient-gradient" x1="0" x2="1" y1="0.5" y2="0.5" gradientUnits="objectBoundingBox"><stop offset="0" stop-color="#000000"></stop><stop offset="1" stop-color="#000000"></stop></linearGradient></defs><g><g transform="translate(157.58499431610107, 99.06499862670898)"><path d="M4.80-41.92L10.24-41.92L10.24 0L4.80 0L4.80-41.92ZM47.10-41.92L47.10-13.25L47.10-13.25Q47.10-6.46 43.65-2.85L43.65-2.85L43.65-2.85Q40.19 0.77 33.47 0.77L33.47 0.77L33.47 0.77Q26.82 0.77 23.33-2.75L23.33-2.75L23.33-2.75Q19.84-6.27 19.84-13.12L19.84-13.12L19.84-41.92L25.28-41.92L25.28-12.42L25.28-12.42Q25.28-8.32 27.42-6.18L27.42-6.18L27.42-6.18Q29.57-4.03 33.47-4.03L33.47-4.03L33.47-4.03Q37.44-4.03 39.55-6.18L39.55-6.18L39.55-6.18Q41.66-8.32 41.66-12.42L41.66-12.42L41.66-41.92L47.10-41.92ZM81.86-42.69L81.86-42.69Q89.02-42.69 92.42-39.10L92.42-39.10L92.42-39.10Q95.81-35.52 95.81-28.93L95.81-28.93L95.81-12.99L95.81-12.99Q95.81-4.80 89.73-1.54L89.73-1.54L97.09 0.38L97.22 5.44L96 5.44L83.46 0.70L83.46 0.70Q83.01 0.77 81.92 0.77L81.92 0.77L81.92 0.77Q67.90 0.77 67.90-12.99L67.90-12.99L67.90-28.93L67.90-28.93Q67.90-35.52 71.30-39.10L71.30-39.10L71.30-39.10Q74.69-42.69 81.86-42.69L81.86-42.69ZM81.86-37.89L81.86-37.89Q77.63-37.89 75.49-35.78L75.49-35.78L75.49-35.78Q73.34-33.66 73.34-29.57L73.34-29.57L73.34-12.42L73.34-12.42Q73.34-8.32 75.52-6.18L75.52-6.18L75.52-6.18Q77.70-4.03 81.92-4.03L81.92-4.03L81.92-4.03Q90.37-4.03 90.37-12.54L90.37-12.54L90.37-29.50L90.37-29.50Q90.37-33.60 88.22-35.74L88.22-35.74L88.22-35.74Q86.08-37.89 81.86-37.89L81.86-37.89ZM132.35-41.92L132.35-13.25L132.35-13.25Q132.35-6.46 128.90-2.85L128.90-2.85L128.90-2.85Q125.44 0.77 118.72 0.77L118.72 0.77L118.72 0.77Q112.06 0.77 108.58-2.75L108.58-2.75L108.58-2.75Q105.09-6.27 105.09-13.12L105.09-13.12L105.09-41.92L110.53-41.92L110.53-12.42L110.53-12.42Q110.53-8.32 112.67-6.18L112.67-6.18L112.67-6.18Q114.82-4.03 118.72-4.03L118.72-4.03L118.72-4.03Q122.69-4.03 124.80-6.18L124.80-6.18L124.80-6.18Q126.91-8.32 126.91-12.42L126.91-12.42L126.91-41.92L132.35-41.92ZM141.95-41.92L147.39-41.92L147.39 0L141.95 0L141.95-41.92ZM155.14-41.92L180.03-41.92L180.03-37.63L161.09-4.93L180.03-4.93L180.03 0L154.75 0L154.75-4.29L173.70-36.99L155.14-36.99L155.14-41.92Z" fill="url(#editing-gradient-gradient)"></path></g></g><style>text {
  font-size: 64px;
  font-family: Arial Black;
  dominant-baseline: central;
  text-anchor: middle;
}</style></svg>